<svg width="584" height="430" viewBox="0 0 584 430" fill="none" xmlns="http://www.w3.org/2000/svg">
<g id="Vector" style="mix-blend-mode:multiply">
<path d="M450.038 136.049C487.463 149.599 522.376 168.815 554.535 191.658C574.263 205.673 576.003 238.718 559.464 256.247C541.042 275.787 514.284 277.323 493.24 262.359C490.054 260.096 486.846 257.878 483.593 255.694C482.892 255.234 479.64 253.163 477.738 251.917C475.716 250.714 473.389 249.302 472.643 248.877C468.893 246.702 465.092 244.601 461.252 242.552C448.232 235.592 434.786 229.381 421.038 223.893C414.164 221.149 407.206 218.603 400.175 216.231C398.496 215.671 396.721 215.219 395.042 214.603C391.766 213.659 388.49 212.714 385.18 211.838C370.791 208.014 356.179 204.921 341.427 202.568C326.29 200.165 311.095 199.331 295.875 197.778C294.944 197.754 294.03 197.724 293.098 197.701C289.573 197.628 286.043 197.595 282.507 197.6C274.574 197.62 266.613 197.835 258.672 198.267C242.806 199.126 226.972 200.831 211.265 203.387C207.774 203.955 204.296 204.556 200.817 205.212C199.084 205.53 197.351 205.902 195.617 206.219C187.84 207.657 199.732 205.243 200.178 205.197C192.492 206.08 184.481 208.868 177.017 210.921C160 215.639 143.254 221.398 126.941 228.215C118.97 231.549 110.249 234.776 102.825 239.221C103.24 238.981 113.966 233.382 106.998 237.105C105.043 238.154 103.076 239.169 101.144 240.228C96.8528 242.554 92.6312 244.967 88.4273 247.429C67.2601 259.868 37.1747 258.576 23.1547 236.735C10.5606 217.129 12.6999 186.081 35.4124 172.739C161.211 98.8311 315.045 87.1642 450.055 136.043L450.038 136.049Z" fill="#FFEB7A"/>
</g>
</svg>
