<svg width="532" height="614" viewBox="0 0 532 614" fill="none" xmlns="http://www.w3.org/2000/svg">
<g id="Vector" style="mix-blend-mode:multiply">
<path d="M463.567 107.688C424.725 94.672 386.295 111.864 369.849 148.827C365.996 157.476 361.819 165.882 357.585 174.355C355.768 177.429 353.977 180.513 352.108 183.567C342.686 198.956 332.257 213.778 321.02 227.902C315.41 234.982 309.543 241.875 303.524 248.619C300.799 251.64 297.648 254.527 294.998 257.666L294.896 257.775C281.933 270.402 268.209 282.289 253.852 293.338C247.209 298.444 240.46 303.361 233.568 308.104C229.539 310.861 225.495 313.581 221.392 316.219C220.155 317.02 218.006 318.243 216.032 319.324C217.39 318.599 219.082 317.706 221.21 316.536C219.092 317.68 216.973 318.825 214.854 319.97C213.034 320.962 211.641 321.703 211.749 321.655C198.965 328.555 186.244 335.449 172.845 341.31C156.831 348.361 139.426 352.587 123.498 359.493C119.466 360.553 115.403 361.543 111.359 362.48C101.826 364.689 92.2305 366.517 82.5489 368.104C45.1462 374.279 14.6297 412.414 22.6774 450.738C30.6908 488.841 65.9697 517.187 105.988 510.595C281.734 481.619 433.429 362.436 505.256 201.041C520.601 166.537 499.467 119.719 463.541 107.678L463.567 107.688Z" fill="#FFD5BF"/>
</g>
</svg>
