<svg width="48" height="48" viewBox="0 0 48 48" fill="none" xmlns="http://www.w3.org/2000/svg">
<path d="M24.0119 1.36213e-06C18.3105 -0.0019425 12.7946 2.0767 8.45172 5.86376C4.10885 9.65083 1.2226 14.899 0.309735 20.6687C-0.603133 26.4384 0.51699 32.3528 3.46956 37.3531C6.42212 42.3534 11.0143 46.1129 16.424 47.9587C17.6164 48.1869 18.0616 47.4249 18.0616 46.7729C18.0616 46.1861 18.0417 44.2504 18.0298 42.1926C11.3521 43.6799 9.94506 39.2912 9.94506 39.2912C8.85198 36.4387 7.27796 35.6889 7.27796 35.6889C5.09976 34.1607 7.44093 34.1933 7.44093 34.1933C9.85363 34.3686 11.1216 36.728 11.1216 36.728C13.264 40.4892 16.738 39.4053 18.1053 38.7655C18.3239 37.1762 18.944 36.0923 19.6317 35.477C14.3173 34.8616 8.69299 32.7508 8.69299 23.3212C8.65732 20.8721 9.54429 18.5031 11.1693 16.7075C10.9189 16.0881 10.0961 13.5861 11.3998 10.1875C11.3998 10.1875 13.4151 9.52735 18.002 12.7099C21.9377 11.6069 26.0901 11.6069 30.0258 12.7099C34.5889 9.54365 36.62 10.1875 36.62 10.1875C37.9237 13.5779 37.1049 16.08 36.8545 16.7075C38.4751 18.5021 39.3591 20.8678 39.3229 23.3131C39.3229 32.7671 33.7104 34.8453 28.3643 35.4566C29.2229 36.2186 29.99 37.7182 29.99 40.0124C29.99 43.305 29.9662 45.9579 29.9662 46.7647C29.9662 47.4208 30.3954 48.1869 31.6117 47.9465C37.0136 46.0937 41.5967 42.332 44.542 37.3335C47.4873 32.3351 48.6028 26.4258 47.6892 20.6617C46.7755 14.8976 43.8923 9.65448 39.5547 5.86936C35.2172 2.08424 29.708 0.0038494 24.0119 1.36213e-06Z" fill="#775B33"/>
</svg>
