<svg width="75" height="25" viewBox="0 0 75 25" fill="none" xmlns="http://www.w3.org/2000/svg">
<g clip-path="url(#clip0_7781_2051)">
<path d="M15.9188 5.74299C14.4981 5.74299 13.2656 4.70056 13.2656 3.12235C13.2656 1.54415 14.4981 0.5 15.9188 0.5C17.3395 0.5 18.572 1.54244 18.572 3.12064C18.572 4.69884 17.3395 5.74128 15.9188 5.74128V5.74299ZM16.8294 23.8701H15.039C14.7531 23.8701 14.4792 23.7571 14.2773 23.5551C14.0753 23.3531 13.9623 23.0793 13.9623 22.7934V9.15787C13.9623 8.87201 14.0753 8.59814 14.2773 8.39616C14.4792 8.19417 14.7531 8.07949 15.039 8.07949H16.8294C17.1153 8.07949 17.3892 8.19246 17.5911 8.39444C17.7931 8.59643 17.9061 8.8703 17.9061 9.15616V22.79C17.9061 23.0759 17.7931 23.3497 17.5911 23.5517C17.3892 23.7537 17.1153 23.8684 16.8294 23.8684V23.8701Z" fill="#D4CEC3"/>
<path d="M10.4955 8.39284C10.2935 8.19086 10.0197 8.07617 9.7338 8.07617H1.07765C0.79179 8.07617 0.517915 8.18915 0.315933 8.39113C0.11395 8.59311 0.000976562 8.8687 0.000976562 9.15455V22.7884C0.000976562 23.0742 0.11395 23.3481 0.315933 23.5501C0.517915 23.7521 0.79179 23.8668 1.07765 23.8668H2.8681C3.15396 23.8668 3.42784 23.7538 3.62982 23.5518C3.8318 23.3498 3.94477 23.076 3.94477 22.7901V12.0251H9.73209C10.018 12.0251 10.2918 11.9121 10.4938 11.7101C10.6958 11.5082 10.8088 11.2326 10.8088 10.9467V9.15627C10.8088 8.87041 10.6958 8.59653 10.4938 8.39455L10.4955 8.39284Z" fill="#D4CEC3"/>
<path d="M26.1251 23.8696H23.3504C23.0646 23.8696 22.7907 23.7566 22.5887 23.5546C22.3867 23.3526 22.2737 23.0787 22.2737 22.7929V20.4615C21.548 19.1983 21.168 17.6509 21.168 15.9768C21.168 14.3028 21.5463 12.7554 22.2737 11.4921V2.21119C22.2737 1.92534 22.3867 1.65146 22.5887 1.44948C22.7907 1.2475 23.0646 1.13281 23.3504 1.13281H25.1409C25.4267 1.13281 25.7006 1.24579 25.9026 1.44777C26.1046 1.64975 26.2175 1.92363 26.2175 2.20948V8.04986C27.1966 7.67158 28.3332 7.44905 29.5331 7.44905C34.5536 7.44905 37.9017 11.0488 37.9017 15.9751C37.9017 20.9014 34.5536 24.5012 29.5331 24.5012C28.3007 24.5012 27.1333 24.2804 26.1217 23.8696H26.1251ZM33.9562 15.9751C33.9562 13.2586 32.1247 11.2388 29.5348 11.2388C26.945 11.2388 25.1135 13.2603 25.1135 15.9751C25.1135 18.6899 26.945 20.7114 29.5348 20.7114C32.1247 20.7114 33.9562 18.6899 33.9562 15.9751Z" fill="#D4CEC3"/>
<path d="M56.7987 15.9753C56.7987 20.9016 53.4506 24.5014 48.4301 24.5014C43.4096 24.5014 40.0615 20.9016 40.0615 15.9753C40.0615 11.049 43.4096 7.44922 48.4301 7.44922C53.4506 7.44922 56.7987 11.049 56.7987 15.9753ZM44.0087 15.9753C44.0087 18.6901 45.8403 20.7116 48.4301 20.7116C51.0199 20.7116 52.8515 18.6901 52.8515 15.9753C52.8515 13.2605 51.0199 11.239 48.4301 11.239C45.8403 11.239 44.0087 13.2605 44.0087 15.9753Z" fill="#D4CEC3"/>
<path d="M60.7642 8.07938H62.5289C62.7309 8.07938 62.9244 8.15983 63.0681 8.3019C63.318 8.55181 63.7015 8.59118 64.0044 8.40974C65.0332 7.79352 66.293 7.44604 67.6453 7.44604C71.4983 7.44604 74.3398 10.2259 74.3398 13.9198V22.7899C74.3398 23.0757 74.2268 23.3496 74.0248 23.5516C73.8229 23.7536 73.549 23.8683 73.2631 23.8683H71.4727C71.1868 23.8683 70.9129 23.7553 70.711 23.5516C70.509 23.3496 70.396 23.0757 70.396 22.7899V14.3939C70.396 12.4682 68.8794 11.0783 67.0171 11.0783C65.1547 11.0783 63.6381 12.3416 63.6381 14.0772V22.7882C63.6381 23.074 63.5252 23.3479 63.3232 23.5499C63.1212 23.7519 62.8473 23.8666 62.5615 23.8666H60.771C60.4852 23.8666 60.2113 23.7536 60.0093 23.5499C59.8073 23.3479 59.6943 23.074 59.6943 22.7882V9.15776C59.6943 8.87191 59.8073 8.59803 60.0093 8.39605C60.2113 8.19407 60.4852 8.07938 60.771 8.07938H60.7642Z" fill="#D4CEC3"/>
</g>
<defs>
<clipPath id="clip0_7781_2051">
<rect width="74.3399" height="24" fill="white" transform="translate(0 0.5)"/>
</clipPath>
</defs>
</svg>
