<svg width="330" height="207" viewBox="0 0 330 207" fill="none" xmlns="http://www.w3.org/2000/svg">
<path d="M173.869 5.22196L154.602 64.4404C151.739 73.2274 139.287 73.2274 136.424 64.4404L117.157 5.22196C115.874 1.26199 111.611 -0.912114 107.646 0.381984L93.4456 4.98902C89.4808 6.27018 87.304 10.5278 88.5997 14.4878L107.867 73.7062C110.73 82.4932 100.65 89.8049 93.1605 84.3826L42.7191 47.7852C39.3503 45.3393 34.621 46.0899 32.1721 49.4546L23.3873 61.5286C20.9384 64.8933 21.6899 69.6168 25.0588 72.0627L75.5002 108.66C82.9893 114.095 79.1411 125.923 69.8898 125.923L7.55391 125.923C3.38177 125.923 -1.16359e-06 129.301 -9.81442e-07 133.468L-3.29787e-07 148.376C-1.47641e-07 152.543 3.38177 155.921 7.55391 155.921L283.498 155.921C287.67 155.921 291.052 152.543 291.052 148.376L291.052 133.455C291.052 129.288 287.67 125.911 283.498 125.911L221.162 125.911C211.911 125.911 208.063 114.082 215.552 108.647L265.993 72.0497C269.362 69.6039 270.114 64.8933 267.665 61.5157L258.88 49.4416C256.431 46.077 251.702 45.3264 248.333 47.7722L197.892 84.3696C190.403 89.8049 180.322 82.4932 183.186 73.6932L202.452 14.4748C203.735 10.5149 201.571 6.25724 197.607 4.97608L183.393 0.369056C179.428 -0.912117 175.165 1.24905 173.882 5.20902L173.869 5.22196Z" fill="#00DA93"/>
<path d="M160.406 196.754C161.071 195.465 161.749 194.179 162.446 192.907C162.769 192.321 163.094 191.737 163.426 191.151C163.539 190.95 163.856 190.413 163.927 190.29C165.426 187.79 166.994 185.336 168.637 182.929C172.033 177.95 175.72 173.169 179.678 168.624C181.654 166.35 183.701 164.134 185.808 161.98C185.872 161.916 186.009 161.774 186.165 161.617C186.388 161.402 187.308 160.502 187.469 160.346C188.597 159.267 189.743 158.203 190.901 157.155C195.293 153.198 199.915 149.489 204.732 146.063C207.187 144.317 209.694 142.644 212.244 141.049C213.476 140.282 214.713 139.53 215.967 138.796C216.163 138.683 216.36 138.574 216.555 138.461C217.108 138.156 217.66 137.848 218.216 137.551C223.673 134.614 229.315 132.02 235.097 129.784C238.009 128.66 240.952 127.622 243.928 126.679C245.359 126.224 246.798 125.792 248.245 125.377C248.913 125.186 249.578 125.001 250.25 124.821C250.534 124.745 250.817 124.67 251.097 124.596C257.003 123.203 262.947 122.052 268.976 121.307C272.534 120.867 276.107 120.551 279.683 120.361C281.414 120.268 283.148 120.204 284.881 120.171C285.692 120.155 286.498 120.145 287.309 120.142C287.657 120.14 288.001 120.14 288.35 120.141C288.427 120.141 289.016 120.149 289.397 120.155C289.767 120.166 290.141 120.175 290.512 120.19C291.438 120.222 292.362 120.264 293.285 120.311C295.017 120.403 296.748 120.525 298.476 120.679C302.048 120.992 305.603 121.445 309.146 122.007C314.515 122.86 320.355 118.79 320.925 113.245C321.508 107.593 317.892 102.349 312.16 101.439C285.298 97.1698 257.527 99.8354 231.887 108.816C206.788 117.609 184.404 132.905 166.384 152.385C156.373 163.207 148.05 175.479 141.302 188.583C138.803 193.429 141.804 200.343 146.791 202.224C152.377 204.335 157.746 201.916 160.407 196.746L160.406 196.754Z" fill="#FF6B6F"/>
</svg>
