<svg width="48" height="37" viewBox="0 0 48 37" fill="none" xmlns="http://www.w3.org/2000/svg">
<path d="M40.6607 3.04671C37.507 1.6029 34.1778 0.578603 30.7579 0C30.29 0.836575 29.8665 1.6973 29.4894 2.57857C25.8466 2.02964 22.1421 2.02964 18.4993 2.57857C18.122 1.69739 17.6986 0.836676 17.2308 0C13.8088 0.583489 10.4773 1.61021 7.32051 3.05426C1.05341 12.3265 -0.6455 21.3685 0.203955 30.2821C3.87412 32.9938 7.98209 35.0561 12.3493 36.3793C13.3326 35.0568 14.2028 33.6537 14.9505 32.1849C13.5303 31.6545 12.1596 31.0001 10.8542 30.2293C11.1978 29.9801 11.5338 29.7234 11.8585 29.4742C15.6569 31.2605 19.8026 32.1867 24 32.1867C28.1975 32.1867 32.3432 31.2605 36.1416 29.4742C36.47 29.7423 36.8061 29.999 37.1458 30.2293C35.8379 31.0014 34.4647 31.657 33.042 32.1887C33.7888 33.6568 34.659 35.0587 35.6432 36.3793C40.0142 35.0614 44.1253 33.0001 47.7961 30.2859C48.7928 19.949 46.0934 10.9901 40.6607 3.04671ZM16.0265 24.8003C13.6593 24.8003 11.7037 22.6521 11.7037 20.0094C11.7037 17.3666 13.5914 15.1996 16.0189 15.1996C18.4465 15.1996 20.387 17.3666 20.3455 20.0094C20.304 22.6521 18.4389 24.8003 16.0265 24.8003ZM31.9736 24.8003C29.6027 24.8003 27.6546 22.6521 27.6546 20.0094C27.6546 17.3666 29.5423 15.1996 31.9736 15.1996C34.4049 15.1996 36.3304 17.3666 36.2888 20.0094C36.2473 22.6521 34.386 24.8003 31.9736 24.8003Z" fill="#AF5333"/>
</svg>
