<svg width="68" height="38" viewBox="0 0 68 38" fill="none" xmlns="http://www.w3.org/2000/svg">
<path d="M40.622 2.22693L36.1206 16.2843C35.4515 18.3701 32.5424 18.3701 31.8734 16.2843L27.3719 2.22693C27.0722 1.28691 26.0763 0.770812 25.15 1.07801L21.8322 2.17163C20.9058 2.47576 20.3973 3.48643 20.7 4.42646L25.2014 18.4838C25.8705 20.5696 23.5153 22.3053 21.7656 21.0182L9.98068 12.3306C9.19361 11.75 8.08868 11.9282 7.51654 12.7269L5.46409 15.5931C4.89195 16.3918 5.06753 17.513 5.8546 18.0936L17.6395 26.7812C19.3892 28.0714 18.4901 30.8792 16.3287 30.8792L1.76486 30.8792C0.790099 30.8792 -2.76214e-07 31.681 -2.32976e-07 32.6701L-7.82852e-08 36.209C-3.50471e-08 37.1982 0.790099 38 1.76486 38L66.2351 38C67.2099 38 68 37.1982 68 36.209L68 32.6671C68 31.6779 67.2099 30.8761 66.2351 30.8761L51.6713 30.8761C49.5099 30.8761 48.6108 28.0683 50.3605 26.7781L62.1454 18.0906C62.9325 17.51 63.108 16.3918 62.5359 15.59L60.4835 12.7238C59.9113 11.9251 58.8064 11.747 58.0193 12.3276L46.2344 21.0151C44.4847 22.3053 42.1295 20.5696 42.7986 18.4807L47.3 4.42338C47.5997 3.48336 47.0941 2.47268 46.1678 2.16855L42.847 1.07493C41.9207 0.770807 40.9247 1.28383 40.625 2.22385L40.622 2.22693Z" fill="#025B37"/>
</svg>
