<svg width="1320" height="304" viewBox="0 0 1320 304" fill="none" xmlns="http://www.w3.org/2000/svg">
<path d="M282.453 93.0097V93.0376C257.697 92.795 236.363 74.5497 236.363 47.0274C236.363 19.3196 257.985 0.984375 282.953 0.984375C307.92 0.984375 329.542 19.2897 329.542 46.997C329.542 74.7044 307.92 93.0097 282.953 93.0097H282.453ZM298.615 414.74V414.77H267.337C262.395 414.77 257.662 412.817 254.171 409.327C250.68 405.836 248.728 401.103 248.728 396.161V154.149C248.728 149.208 250.68 144.474 254.171 140.984C257.663 137.491 262.397 135.51 267.337 135.51H299.115C304.057 135.51 308.79 137.462 312.281 140.953C315.772 144.444 317.724 149.177 317.724 154.119V396.1C317.724 401.042 315.772 405.775 312.281 409.266C308.789 412.758 304.055 414.74 299.115 414.74H298.615Z" stroke="#DBDBDB"/>
<path d="M173.184 135.479C177.957 135.479 182.538 137.329 185.992 140.604L185.966 140.629L186.32 140.983C189.81 144.474 191.763 149.207 191.763 154.149V185.927C191.763 190.869 189.81 195.633 186.32 199.123C182.829 202.614 178.095 204.566 173.154 204.566H70.4372H69.9372V205.066V396.13C69.9372 401.071 67.9844 405.805 64.4937 409.296C61.0029 412.786 56.2694 414.739 51.3279 414.739H19.5498C14.6103 414.739 9.87616 412.757 6.38401 409.265C2.8933 405.775 0.94043 401.041 0.94043 396.099V154.118C0.94043 149.176 2.89389 144.412 6.38401 140.922C9.87471 137.431 14.6082 135.479 19.5498 135.479H173.184Z" stroke="#DBDBDB"/>
<path d="M396.25 354.747V354.613L396.184 354.498C383.352 332.164 376.624 304.788 376.624 275.15C376.624 245.511 383.322 218.136 396.183 195.802L396.25 195.686V195.553V30.8292C396.25 25.8877 398.203 21.1541 401.694 17.6634C405.186 14.1713 409.92 12.1895 414.859 12.1895H446.638C451.579 12.1895 456.313 14.1423 459.803 17.633C463.294 21.1237 465.247 25.8573 465.247 30.7988V134.457V135.187L465.927 134.924C483.246 128.232 503.358 124.294 524.594 124.294C569.023 124.294 606.022 140.219 631.915 167.016C657.809 193.814 672.625 231.516 672.625 275.119C672.625 318.722 657.809 356.424 631.915 383.223C606.022 410.02 569.023 425.945 524.594 425.945C502.778 425.945 482.124 422.036 464.234 414.771L464.106 415.085V414.734H464.046H414.859C409.918 414.734 405.184 412.782 401.694 409.291C398.203 405.8 396.25 401.067 396.25 396.125V354.747ZM603.598 275.119C603.598 226.666 570.902 190.556 524.624 190.556C478.347 190.556 445.651 226.697 445.651 275.119C445.651 323.542 478.347 359.682 524.624 359.682C570.902 359.682 603.598 323.542 603.598 275.119Z" stroke="#DBDBDB"/>
<path d="M1007.99 275.121C1007.99 318.723 993.179 356.426 967.284 383.224C941.392 410.021 904.392 425.946 859.964 425.946C815.535 425.946 778.536 410.021 752.643 383.224C726.749 356.426 711.933 318.723 711.933 275.121C711.933 231.518 726.749 193.815 752.643 167.017C778.536 140.22 815.535 124.295 859.964 124.295C904.392 124.295 941.392 140.22 967.284 167.017C993.179 193.815 1007.99 231.518 1007.99 275.121ZM780.991 275.121C780.991 323.543 813.686 359.684 859.964 359.684C906.241 359.684 938.937 323.543 938.937 275.121C938.937 226.698 906.241 190.557 859.964 190.557C813.686 190.557 780.991 226.698 780.991 275.121Z" stroke="#DBDBDB"/>
<path d="M1065.84 140.984C1069.33 137.492 1074.07 135.51 1079.01 135.51H1110.21C1113.66 135.51 1116.97 136.885 1119.43 139.314C1124.03 143.918 1131.09 144.635 1136.65 141.303L1136.4 140.874L1136.65 141.303C1154.83 130.415 1177.1 124.27 1201.02 124.27C1269.14 124.27 1319.33 173.398 1319.33 238.669V396.101C1319.33 401.042 1317.38 405.776 1313.89 409.267C1310.4 412.759 1305.66 414.741 1300.73 414.741H1268.95C1264.01 414.741 1259.27 412.788 1255.78 409.268L1255.78 409.267C1252.29 405.776 1250.34 401.042 1250.34 396.101V247.084C1250.34 212.611 1223.18 187.737 1189.87 187.737C1156.6 187.737 1129.4 210.319 1129.4 241.464V396.071C1129.4 401.012 1127.44 405.746 1123.95 409.236C1120.46 412.728 1115.73 414.71 1110.79 414.71H1079.01C1074.07 414.71 1069.33 412.758 1065.84 409.238L1065.84 409.236C1062.35 405.746 1060.4 401.012 1060.4 396.071V154.15C1060.4 149.209 1062.35 144.475 1065.84 140.984Z" stroke="#DBDBDB"/>
</svg>
