<svg width="1320" height="307" viewBox="0 0 1320 307" fill="none" xmlns="http://www.w3.org/2000/svg">
<path d="M282.012 92.5253V92.5532C257.256 92.3107 235.922 74.0653 235.922 46.543C235.922 18.8352 257.545 0.5 282.512 0.5C307.48 0.5 329.102 18.8053 329.102 46.5127C329.102 74.22 307.48 92.5253 282.512 92.5253H282.012ZM298.175 414.256V414.286H266.897C261.955 414.286 257.221 412.333 253.731 408.842C250.24 405.352 248.287 400.618 248.287 395.677V153.665C248.287 148.723 250.24 143.99 253.731 140.499C257.223 137.007 261.957 135.025 266.897 135.025H298.675C303.616 135.025 308.35 136.978 311.84 140.469C315.331 143.959 317.284 148.693 317.284 153.635V395.616C317.284 400.557 315.331 405.291 311.84 408.782C308.348 412.274 303.614 414.256 298.675 414.256H298.175Z" stroke="#867F70"/>
<path d="M172.744 134.995C177.516 134.995 182.097 136.845 185.551 140.12L185.526 140.145L185.879 140.499C189.37 143.99 191.323 148.723 191.323 153.665V185.443C191.323 190.385 189.369 195.149 185.879 198.639C182.389 202.13 177.655 204.083 172.714 204.083H69.9968H69.4968V204.583V395.646C69.4968 400.588 67.5439 405.321 64.0532 408.812C60.5625 412.302 55.829 414.255 50.8874 414.255H19.1094C14.1699 414.255 9.43573 412.274 5.94358 408.781C2.45287 405.291 0.5 400.557 0.5 395.616V153.634C0.5 148.692 2.45346 143.928 5.94358 140.438C9.43428 136.947 14.1678 134.995 19.1094 134.995H172.744Z" stroke="#867F70"/>
<path d="M395.81 354.262V354.129L395.743 354.013C382.912 331.679 376.184 304.304 376.184 274.665C376.184 245.026 382.882 217.651 395.743 195.318L395.81 195.202V195.068V30.3448C395.81 25.4033 397.763 20.6697 401.253 17.179C404.745 13.6869 409.48 11.7051 414.419 11.7051H446.197C451.139 11.7051 455.872 13.6579 459.363 17.1487C462.854 20.6394 464.807 25.3729 464.807 30.3145V133.973V134.702L465.487 134.439C482.806 127.748 502.917 123.809 524.154 123.809C568.582 123.809 605.582 139.735 631.474 166.531C657.369 193.33 672.184 231.032 672.184 274.635C672.184 318.238 657.369 355.94 631.474 382.739C605.582 409.535 568.582 425.461 524.154 425.461C502.338 425.461 481.683 421.552 463.793 414.287L463.666 414.6V414.25H463.605H414.419C409.478 414.25 404.744 412.297 401.253 408.807C397.763 405.316 395.81 400.582 395.81 395.641V354.262ZM603.157 274.635C603.157 226.182 570.462 190.072 524.184 190.072C477.906 190.072 445.211 226.213 445.211 274.635C445.211 323.057 477.906 359.198 524.184 359.198C570.462 359.198 603.157 323.057 603.157 274.635Z" stroke="#867F70"/>
<path d="M1007.55 274.636C1007.55 318.239 992.738 355.941 966.844 382.74C940.951 409.536 903.952 425.462 859.523 425.462C815.094 425.462 778.095 409.536 752.203 382.74C726.308 355.941 711.493 318.239 711.493 274.636C711.493 231.033 726.308 193.331 752.203 166.533C778.095 139.736 815.094 123.811 859.523 123.811C903.952 123.811 940.951 139.736 966.844 166.533C992.738 193.331 1007.55 231.033 1007.55 274.636ZM780.55 274.636C780.55 323.059 813.245 359.199 859.523 359.199C905.801 359.199 938.496 323.059 938.496 274.636C938.496 226.214 905.801 190.073 859.523 190.073C813.245 190.073 780.55 226.214 780.55 274.636Z" stroke="#867F70"/>
<path d="M1065.4 140.5C1068.89 137.008 1073.63 135.026 1078.57 135.026H1109.77C1113.22 135.026 1116.53 136.4 1118.99 138.83C1123.59 143.434 1130.65 144.151 1136.21 140.818L1135.96 140.389L1136.21 140.818C1154.39 129.931 1176.66 123.785 1200.58 123.785C1268.7 123.785 1318.89 172.913 1318.89 238.184V395.617C1318.89 400.558 1316.94 405.292 1313.45 408.782C1309.96 412.274 1305.22 414.256 1300.28 414.256H1268.51C1263.57 414.256 1258.83 412.304 1255.34 408.784L1255.34 408.782C1251.85 405.292 1249.9 400.558 1249.9 395.617V246.6C1249.9 212.127 1222.74 187.253 1189.43 187.253C1156.16 187.253 1128.95 209.835 1128.95 240.979V395.586C1128.95 400.528 1127 405.261 1123.51 408.752C1120.02 412.244 1115.29 414.226 1110.35 414.226H1078.57C1073.63 414.226 1068.89 412.273 1065.4 408.753L1065.4 408.752C1061.91 405.261 1059.96 400.528 1059.96 395.586V153.666C1059.96 148.724 1061.91 143.991 1065.4 140.5Z" stroke="#867F70"/>
</svg>
