<svg width="48" height="39" viewBox="0 0 48 39" fill="none" xmlns="http://www.w3.org/2000/svg">
<path d="M48 4.61427C46.2339 5.39691 44.336 5.92586 42.3439 6.16376C44.3772 4.94585 45.9386 3.0174 46.6739 0.719658C44.7712 1.84722 42.6636 2.66617 40.4205 3.10758C38.624 1.1951 36.0647 0 33.2323 0C27.7936 0 23.3843 4.40584 23.3843 9.84012C23.3843 10.6114 23.4715 11.3624 23.6394 12.0826C15.4548 11.6722 8.19857 7.75465 3.34151 1.80125C2.49384 3.2546 2.00821 4.94497 2.00821 6.74833C2.00821 10.1622 3.74691 13.1742 6.38929 14.9388C4.77489 14.8877 3.25653 14.4451 1.92867 13.7081C1.92797 13.7491 1.92797 13.7903 1.92797 13.8317C1.92797 18.5995 5.32251 22.5768 9.82754 23.4806C9.00112 23.7055 8.13115 23.8257 7.23292 23.8257C6.5984 23.8257 5.98143 23.7641 5.38027 23.6492C6.63334 27.5588 10.2702 30.4037 14.5794 30.4832C11.2091 33.1223 6.96289 34.6955 2.34917 34.6955C1.55435 34.6955 0.770416 34.649 0 34.5581C4.35808 37.3501 9.53451 38.9791 15.0958 38.9791C33.2093 38.9791 43.1145 23.9847 43.1145 10.9812C43.1145 10.5545 43.105 10.1301 43.0861 9.70819C45.01 8.3208 46.6797 6.58762 48 4.61427Z" fill="#025B37"/>
</svg>
